<mxfile host="app.diagrams.net" modified="2024-02-13T13:06:08.969Z" agent="Mozilla/5.0 (Windows NT 10.0; Win64; x64) AppleWebKit/537.36 (KHTML, like Gecko) Chrome/121.0.0.0 Safari/537.36 Edg/121.0.0.0" etag="M8Kth44Jbz_8yH7x9STw" version="23.1.2" type="google">
  <diagram name="Page-1" id="yf1-RcJyV4F8kWQea9Ah">
    <mxGraphModel grid="1" page="1" gridSize="10" guides="1" tooltips="1" connect="1" arrows="1" fold="1" pageScale="1" pageWidth="850" pageHeight="1100" math="0" shadow="0">
      <root>
        <mxCell id="0" />
        <mxCell id="1" parent="0" />
        <mxCell id="h2pO7oB8VD5MqKPUEjqd-3" style="edgeStyle=orthogonalEdgeStyle;rounded=0;orthogonalLoop=1;jettySize=auto;html=1;exitX=0.5;exitY=1;exitDx=0;exitDy=0;entryX=0.5;entryY=0;entryDx=0;entryDy=0;" edge="1" parent="1" source="h2pO7oB8VD5MqKPUEjqd-1" target="h2pO7oB8VD5MqKPUEjqd-2">
          <mxGeometry relative="1" as="geometry" />
        </mxCell>
        <mxCell id="h2pO7oB8VD5MqKPUEjqd-1" value="App" style="ellipse;whiteSpace=wrap;html=1;aspect=fixed;" vertex="1" parent="1">
          <mxGeometry x="340" y="70" width="80" height="80" as="geometry" />
        </mxCell>
        <mxCell id="h2pO7oB8VD5MqKPUEjqd-7" style="edgeStyle=orthogonalEdgeStyle;rounded=0;orthogonalLoop=1;jettySize=auto;html=1;exitX=0.5;exitY=1;exitDx=0;exitDy=0;entryX=0.5;entryY=0;entryDx=0;entryDy=0;" edge="1" parent="1" source="h2pO7oB8VD5MqKPUEjqd-2" target="h2pO7oB8VD5MqKPUEjqd-6">
          <mxGeometry relative="1" as="geometry" />
        </mxCell>
        <mxCell id="h2pO7oB8VD5MqKPUEjqd-2" value="Layout" style="ellipse;whiteSpace=wrap;html=1;aspect=fixed;" vertex="1" parent="1">
          <mxGeometry x="345" y="180" width="80" height="80" as="geometry" />
        </mxCell>
        <mxCell id="h2pO7oB8VD5MqKPUEjqd-21" style="edgeStyle=orthogonalEdgeStyle;rounded=0;orthogonalLoop=1;jettySize=auto;html=1;exitX=0.5;exitY=1;exitDx=0;exitDy=0;" edge="1" parent="1" source="h2pO7oB8VD5MqKPUEjqd-4" target="h2pO7oB8VD5MqKPUEjqd-17">
          <mxGeometry relative="1" as="geometry">
            <Array as="points">
              <mxPoint x="190" y="510" />
              <mxPoint x="330" y="510" />
            </Array>
          </mxGeometry>
        </mxCell>
        <mxCell id="h2pO7oB8VD5MqKPUEjqd-23" style="edgeStyle=orthogonalEdgeStyle;rounded=0;orthogonalLoop=1;jettySize=auto;html=1;" edge="1" parent="1" source="h2pO7oB8VD5MqKPUEjqd-4" target="h2pO7oB8VD5MqKPUEjqd-13">
          <mxGeometry relative="1" as="geometry">
            <Array as="points">
              <mxPoint x="190" y="510" />
              <mxPoint x="10" y="510" />
            </Array>
          </mxGeometry>
        </mxCell>
        <mxCell id="h2pO7oB8VD5MqKPUEjqd-24" style="edgeStyle=orthogonalEdgeStyle;rounded=0;orthogonalLoop=1;jettySize=auto;html=1;entryX=0.5;entryY=0;entryDx=0;entryDy=0;" edge="1" parent="1" source="h2pO7oB8VD5MqKPUEjqd-4" target="h2pO7oB8VD5MqKPUEjqd-15">
          <mxGeometry relative="1" as="geometry">
            <Array as="points">
              <mxPoint x="190" y="510" />
              <mxPoint x="120" y="510" />
            </Array>
          </mxGeometry>
        </mxCell>
        <mxCell id="h2pO7oB8VD5MqKPUEjqd-25" style="edgeStyle=orthogonalEdgeStyle;rounded=0;orthogonalLoop=1;jettySize=auto;html=1;exitX=0.5;exitY=1;exitDx=0;exitDy=0;entryX=0.5;entryY=0;entryDx=0;entryDy=0;" edge="1" parent="1" source="h2pO7oB8VD5MqKPUEjqd-4" target="h2pO7oB8VD5MqKPUEjqd-16">
          <mxGeometry relative="1" as="geometry">
            <Array as="points">
              <mxPoint x="190" y="510" />
              <mxPoint x="230" y="510" />
            </Array>
          </mxGeometry>
        </mxCell>
        <mxCell id="h2pO7oB8VD5MqKPUEjqd-4" value="NavBar" style="ellipse;whiteSpace=wrap;html=1;aspect=fixed;" vertex="1" parent="1">
          <mxGeometry x="150" y="400" width="80" height="80" as="geometry" />
        </mxCell>
        <mxCell id="h2pO7oB8VD5MqKPUEjqd-8" style="edgeStyle=orthogonalEdgeStyle;rounded=0;orthogonalLoop=1;jettySize=auto;html=1;entryX=0.5;entryY=0;entryDx=0;entryDy=0;" edge="1" parent="1" source="h2pO7oB8VD5MqKPUEjqd-6" target="h2pO7oB8VD5MqKPUEjqd-4">
          <mxGeometry relative="1" as="geometry" />
        </mxCell>
        <mxCell id="h2pO7oB8VD5MqKPUEjqd-11" style="edgeStyle=orthogonalEdgeStyle;rounded=0;orthogonalLoop=1;jettySize=auto;html=1;entryX=0.5;entryY=0;entryDx=0;entryDy=0;" edge="1" parent="1" source="h2pO7oB8VD5MqKPUEjqd-6" target="h2pO7oB8VD5MqKPUEjqd-10">
          <mxGeometry relative="1" as="geometry" />
        </mxCell>
        <mxCell id="h2pO7oB8VD5MqKPUEjqd-6" value="Page" style="ellipse;whiteSpace=wrap;html=1;aspect=fixed;" vertex="1" parent="1">
          <mxGeometry x="345" y="290" width="80" height="80" as="geometry" />
        </mxCell>
        <mxCell id="h2pO7oB8VD5MqKPUEjqd-28" style="edgeStyle=orthogonalEdgeStyle;rounded=0;orthogonalLoop=1;jettySize=auto;html=1;" edge="1" parent="1" source="h2pO7oB8VD5MqKPUEjqd-10" target="h2pO7oB8VD5MqKPUEjqd-26">
          <mxGeometry relative="1" as="geometry">
            <Array as="points">
              <mxPoint x="610" y="500" />
              <mxPoint x="530" y="500" />
            </Array>
          </mxGeometry>
        </mxCell>
        <mxCell id="h2pO7oB8VD5MqKPUEjqd-29" style="edgeStyle=orthogonalEdgeStyle;rounded=0;orthogonalLoop=1;jettySize=auto;html=1;exitX=0.5;exitY=1;exitDx=0;exitDy=0;" edge="1" parent="1" source="h2pO7oB8VD5MqKPUEjqd-10" target="h2pO7oB8VD5MqKPUEjqd-27">
          <mxGeometry relative="1" as="geometry">
            <Array as="points">
              <mxPoint x="610" y="500" />
              <mxPoint x="730" y="500" />
            </Array>
          </mxGeometry>
        </mxCell>
        <mxCell id="h2pO7oB8VD5MqKPUEjqd-10" value="NewsBoard" style="ellipse;whiteSpace=wrap;html=1;aspect=fixed;" vertex="1" parent="1">
          <mxGeometry x="570" y="410" width="80" height="80" as="geometry" />
        </mxCell>
        <mxCell id="h2pO7oB8VD5MqKPUEjqd-13" value="Date &amp;amp; Time" style="ellipse;whiteSpace=wrap;html=1;aspect=fixed;" vertex="1" parent="1">
          <mxGeometry x="-30" y="550" width="80" height="80" as="geometry" />
        </mxCell>
        <mxCell id="h2pO7oB8VD5MqKPUEjqd-15" value="Logo" style="ellipse;whiteSpace=wrap;html=1;aspect=fixed;" vertex="1" parent="1">
          <mxGeometry x="80" y="550" width="80" height="80" as="geometry" />
        </mxCell>
        <mxCell id="h2pO7oB8VD5MqKPUEjqd-16" value="Search" style="ellipse;whiteSpace=wrap;html=1;aspect=fixed;fillColor=#D5E8D4;" vertex="1" parent="1">
          <mxGeometry x="190" y="550" width="80" height="80" as="geometry" />
        </mxCell>
        <mxCell id="h2pO7oB8VD5MqKPUEjqd-17" value="Categories" style="ellipse;whiteSpace=wrap;html=1;aspect=fixed;" vertex="1" parent="1">
          <mxGeometry x="290" y="550" width="80" height="80" as="geometry" />
        </mxCell>
        <mxCell id="h2pO7oB8VD5MqKPUEjqd-26" value="LedftSide" style="ellipse;whiteSpace=wrap;html=1;aspect=fixed;" vertex="1" parent="1">
          <mxGeometry x="490" y="520" width="80" height="80" as="geometry" />
        </mxCell>
        <mxCell id="h2pO7oB8VD5MqKPUEjqd-27" value="RigtSide" style="ellipse;whiteSpace=wrap;html=1;aspect=fixed;" vertex="1" parent="1">
          <mxGeometry x="690" y="520" width="80" height="80" as="geometry" />
        </mxCell>
        <mxCell id="SNJ69HRVncB5qtLJHK4q-3" style="edgeStyle=orthogonalEdgeStyle;rounded=0;orthogonalLoop=1;jettySize=auto;html=1;entryX=0.5;entryY=0;entryDx=0;entryDy=0;" edge="1" parent="1" source="SNJ69HRVncB5qtLJHK4q-1" target="SNJ69HRVncB5qtLJHK4q-2">
          <mxGeometry relative="1" as="geometry" />
        </mxCell>
        <mxCell id="SNJ69HRVncB5qtLJHK4q-10" style="edgeStyle=orthogonalEdgeStyle;rounded=0;orthogonalLoop=1;jettySize=auto;html=1;exitX=0;exitY=0.5;exitDx=0;exitDy=0;entryX=0.5;entryY=0;entryDx=0;entryDy=0;" edge="1" parent="1" source="SNJ69HRVncB5qtLJHK4q-1" target="SNJ69HRVncB5qtLJHK4q-9">
          <mxGeometry relative="1" as="geometry" />
        </mxCell>
        <mxCell id="SNJ69HRVncB5qtLJHK4q-1" value="Hooks" style="shape=process;whiteSpace=wrap;html=1;backgroundOutline=1;" vertex="1" parent="1">
          <mxGeometry x="1090" y="50" width="120" height="60" as="geometry" />
        </mxCell>
        <mxCell id="SNJ69HRVncB5qtLJHK4q-2" value="useNewsQuery" style="ellipse;whiteSpace=wrap;html=1;aspect=fixed;fillColor=#E6FFCC;" vertex="1" parent="1">
          <mxGeometry x="1105" y="150" width="90" height="90" as="geometry" />
        </mxCell>
        <mxCell id="SNJ69HRVncB5qtLJHK4q-6" style="edgeStyle=orthogonalEdgeStyle;rounded=0;orthogonalLoop=1;jettySize=auto;html=1;" edge="1" parent="1" source="SNJ69HRVncB5qtLJHK4q-5" target="h2pO7oB8VD5MqKPUEjqd-1">
          <mxGeometry relative="1" as="geometry" />
        </mxCell>
        <mxCell id="SNJ69HRVncB5qtLJHK4q-8" value="" style="edgeStyle=orthogonalEdgeStyle;rounded=0;orthogonalLoop=1;jettySize=auto;html=1;" edge="1" parent="1" source="SNJ69HRVncB5qtLJHK4q-7" target="SNJ69HRVncB5qtLJHK4q-5">
          <mxGeometry relative="1" as="geometry" />
        </mxCell>
        <mxCell id="SNJ69HRVncB5qtLJHK4q-5" value="Context API" style="ellipse;whiteSpace=wrap;html=1;aspect=fixed;" vertex="1" parent="1">
          <mxGeometry x="670" y="40" width="80" height="80" as="geometry" />
        </mxCell>
        <mxCell id="SNJ69HRVncB5qtLJHK4q-7" value="NewsContext" style="ellipse;whiteSpace=wrap;html=1;fillColor=#E6DFE4;" vertex="1" parent="1">
          <mxGeometry x="670" y="200" width="80" height="80" as="geometry" />
        </mxCell>
        <mxCell id="SNJ69HRVncB5qtLJHK4q-11" style="edgeStyle=orthogonalEdgeStyle;rounded=0;orthogonalLoop=1;jettySize=auto;html=1;entryX=1;entryY=0.5;entryDx=0;entryDy=0;" edge="1" parent="1" source="SNJ69HRVncB5qtLJHK4q-9" target="SNJ69HRVncB5qtLJHK4q-5">
          <mxGeometry relative="1" as="geometry" />
        </mxCell>
        <mxCell id="SNJ69HRVncB5qtLJHK4q-9" value="Provider" style="ellipse;whiteSpace=wrap;html=1;aspect=fixed;" vertex="1" parent="1">
          <mxGeometry x="940" y="240" width="80" height="80" as="geometry" />
        </mxCell>
      </root>
    </mxGraphModel>
  </diagram>
</mxfile>
